# Blender v2.90.1 OBJ File: 'BULLET .blend'
# www.blender.org
mtllib bullet.mtl
o Cylinder.001_Cylinder.005
v -0.000000 -0.167492 -1.159677
v 0.118434 -0.118435 -1.159677
v 0.167492 -0.000000 -1.159677
v 0.118434 0.118435 -1.159677
v -0.000000 0.167492 -1.159677
v -0.118435 0.118435 -1.159677
v -0.167492 -0.000000 -1.159677
v -0.118435 -0.118435 -1.159677
v 0.000000 -0.167492 1.427909
v 0.118435 -0.118435 1.427909
v 0.167492 0.000000 1.427909
v 0.118435 0.118435 1.427909
v 0.000000 0.167492 1.427909
v -0.118434 0.118435 1.427909
v -0.167492 0.000000 1.427909
v -0.118434 -0.118435 1.427909
v 0.000000 -0.030734 2.042532
v 0.021733 -0.021732 2.042532
v 0.030735 0.000000 2.042532
v 0.021733 0.021733 2.042532
v 0.000000 0.030734 2.042532
v -0.021732 0.021733 2.042532
v -0.030734 0.000000 2.042532
v -0.021732 -0.021732 2.042532
v -0.000000 -0.295715 0.256786
v -0.000000 -0.295715 -0.334643
v 0.209102 -0.209102 0.256786
v 0.209102 -0.209102 -0.334643
v 0.295715 0.000000 0.256786
v 0.295715 -0.000000 -0.334643
v 0.209102 0.209102 0.256786
v 0.209102 0.209102 -0.334643
v -0.000000 0.295715 0.256786
v -0.000000 0.295715 -0.334643
v -0.209102 0.209102 0.256786
v -0.209102 0.209102 -0.334643
v -0.295715 0.000000 0.256786
v -0.295715 -0.000000 -0.334643
v -0.209102 -0.209102 0.256786
v -0.209102 -0.209102 -0.334643
v 0.000000 -0.295715 -1.409402
v 0.209102 -0.209102 -1.409402
v 0.295715 -0.000000 -1.409402
v 0.209102 0.209102 -1.409402
v -0.000000 0.295714 -1.409402
v -0.209102 0.209102 -1.409402
v -0.295715 -0.000000 -1.409402
v -0.209102 -0.209102 -1.409402
v 0.000000 -0.275780 -1.492096
v 0.195006 -0.195006 -1.492096
v 0.275780 -0.000000 -1.492096
v 0.195006 0.195006 -1.492096
v 0.000000 0.275780 -1.492096
v -0.195006 0.195006 -1.492096
v -0.275780 -0.000000 -1.492096
v -0.195006 -0.195006 -1.492096
v 0.000000 -0.241023 -1.574791
v 0.170429 -0.170429 -1.574791
v 0.241023 -0.000000 -1.574791
v 0.170429 0.170429 -1.574791
v -0.000000 0.241023 -1.574791
v -0.170429 0.170429 -1.574791
v -0.241023 -0.000000 -1.574791
v -0.170429 -0.170429 -1.574791
v 0.000000 -0.277442 -1.594906
v 0.196181 -0.196181 -1.594906
v 0.277442 -0.000000 -1.594906
v 0.196181 0.196181 -1.594906
v -0.000000 0.277442 -1.594906
v -0.196181 0.196181 -1.594906
v -0.277442 -0.000000 -1.594906
v -0.196181 -0.196181 -1.594906
v 0.000000 -0.277442 -1.673131
v 0.196181 -0.196181 -1.673131
v 0.277442 -0.000000 -1.673131
v 0.196181 0.196181 -1.673131
v -0.000000 0.277442 -1.673131
v -0.196181 0.196181 -1.673131
v -0.277442 -0.000000 -1.673131
v -0.196181 -0.196181 -1.673131
v 0.000000 -0.295714 0.648357
v 0.209102 -0.209102 0.648357
v 0.295715 0.000000 0.648357
v 0.209102 0.209102 0.648357
v -0.000000 0.295715 0.648357
v -0.209102 0.209102 0.648357
v -0.295715 0.000000 0.648357
v -0.209102 -0.209102 0.648357
v -0.000000 -0.192396 0.860234
v 0.136044 -0.136044 0.860234
v 0.192396 0.000000 0.860234
v 0.136044 0.136044 0.860234
v -0.000000 0.192396 0.860234
v -0.136044 0.136044 0.860234
v -0.192396 0.000000 0.860234
v -0.136044 -0.136044 0.860234
v -0.000000 -0.192396 1.192801
v 0.136044 -0.136044 1.192801
v 0.192396 0.000000 1.192801
v 0.136044 0.136044 1.192801
v -0.000000 0.192396 1.192801
v -0.136044 0.136044 1.192801
v -0.192396 0.000000 1.192801
v -0.136044 -0.136044 1.192801
v -0.000000 -0.167492 1.192801
v 0.118435 -0.118435 1.192801
v 0.167492 0.000000 1.192801
v 0.118435 0.118435 1.192801
v -0.000000 0.167492 1.192801
v -0.118435 0.118435 1.192801
v -0.167492 0.000000 1.192801
v -0.118435 -0.118435 1.192801
v -0.000000 -0.167492 -1.159677
v 0.118434 -0.118435 -1.159677
v 0.167492 -0.000000 -1.159677
v 0.118434 0.118435 -1.159677
v -0.000000 0.167492 -1.159677
v -0.118435 0.118435 -1.159677
v -0.167492 -0.000000 -1.159677
v -0.118435 -0.118435 -1.159677
vt 0.468615 0.258175
vt 0.478218 0.258175
vt 0.501402 0.258175
vt 0.524585 0.258175
vt 0.534188 0.258175
vt 0.524585 0.258175
vt 0.501402 0.258175
vt 0.478218 0.258175
vt 0.501402 0.781295
vt 0.478218 0.781295
vt 0.497148 0.905551
vt 0.501402 0.905551
vt 0.534188 0.781295
vt 0.524585 0.781295
vt 0.501402 0.781295
vt 0.478218 0.781295
vt 0.524585 0.781295
vt 0.468616 0.781295
vt 0.495386 0.905551
vt 0.497148 0.905551
vt 0.501402 0.905551
vt 0.505656 0.905551
vt 0.507418 0.905551
vt 0.505656 0.905551
vt 0.443516 0.544535
vt 0.443516 0.424968
vt 0.460470 0.424968
vt 0.460471 0.544535
vt 0.501402 0.424968
vt 0.501402 0.544535
vt 0.542333 0.424968
vt 0.542333 0.544535
vt 0.559287 0.424968
vt 0.559287 0.544535
vt 0.542333 0.424968
vt 0.542333 0.544535
vt 0.501402 0.424968
vt 0.501402 0.544535
vt 0.460470 0.424968
vt 0.460470 0.207689
vt 0.443516 0.207689
vt 0.460471 0.544535
vt 0.542333 0.623697
vt 0.559287 0.623697
vt 0.460470 0.207689
vt 0.447418 0.190972
vt 0.463230 0.190972
vt 0.501402 0.207689
vt 0.542333 0.207689
vt 0.542333 0.207689
vt 0.501402 0.207689
vt 0.559287 0.207689
vt 0.463230 0.190972
vt 0.501402 0.190972
vt 0.501402 0.174253
vt 0.468041 0.174253
vt 0.539574 0.190972
vt 0.539574 0.190972
vt 0.555385 0.190972
vt 0.501402 0.190972
vt 0.501402 0.174253
vt 0.468041 0.174253
vt 0.463000 0.170187
vt 0.501402 0.170187
vt 0.548582 0.174253
vt 0.534763 0.174253
vt 0.534763 0.174253
vt 0.454222 0.174253
vt 0.447093 0.170187
vt 0.463000 0.170187
vt 0.463000 0.154372
vt 0.447093 0.154372
vt 0.501402 0.170187
vt 0.555710 0.170187
vt 0.539804 0.170187
vt 0.539804 0.170187
vt 0.723071 0.333868
vt 0.798140 0.302267
vt 0.873210 0.333868
vt 0.904305 0.410158
vt 0.873210 0.486449
vt 0.798140 0.518049
vt 0.723071 0.486449
vt 0.691976 0.410158
vt 0.539804 0.154372
vt 0.501402 0.154372
vt 0.539804 0.154372
vt 0.555710 0.154372
vt 0.463000 0.154372
vt 0.501402 0.154372
vt 0.501402 0.623697
vt 0.460471 0.623697
vt 0.474772 0.666531
vt 0.501402 0.666531
vt 0.443517 0.623697
vt 0.460471 0.623697
vt 0.542333 0.623697
vt 0.501402 0.623697
vt 0.528032 0.666531
vt 0.539063 0.666531
vt 0.539063 0.733765
vt 0.528032 0.733765
vt 0.528032 0.666531
vt 0.501402 0.666531
vt 0.474772 0.666531
vt 0.463741 0.666531
vt 0.501402 0.733765
vt 0.474772 0.733765
vt 0.478218 0.733765
vt 0.501402 0.733765
vt 0.501402 0.733765
vt 0.474772 0.733765
vt 0.528032 0.733765
vt 0.463741 0.733765
vt 0.524585 0.733765
vt 0.501402 0.258175
vt 0.524585 0.258175
vt 0.534188 0.733765
vt 0.524585 0.733765
vt 0.501402 0.733765
vt 0.478218 0.733765
vt 0.468616 0.733765
vt 0.468615 0.258175
vt 0.478218 0.258175
vt 0.501402 0.258175
vt 0.524585 0.258175
vt 0.534188 0.258175
vt 0.478218 0.258175
vn 0.0000 -0.7764 -0.6302
vn -0.5490 -0.5490 -0.6302
vn -0.7764 0.0000 -0.6302
vn -0.5490 0.5490 -0.6302
vn 0.0000 0.7764 -0.6302
vn 0.5490 0.5490 -0.6302
vn 0.7764 0.0000 -0.6302
vn 0.5490 -0.5490 -0.6302
vn -0.9943 0.0000 0.1064
vn -0.7031 -0.7031 0.1064
vn -0.4976 -0.4976 0.7104
vn -0.7037 0.0000 0.7104
vn 0.0000 0.9943 0.1064
vn 0.7031 0.7031 0.1064
vn 0.9943 0.0000 0.1064
vn 0.7031 -0.7031 0.1064
vn -0.7031 0.7031 0.1064
vn 0.0000 -0.9943 0.1064
vn 0.0000 -0.7037 0.7104
vn 0.4976 -0.4976 0.7104
vn 0.7037 0.0000 0.7104
vn 0.4976 0.4976 0.7104
vn 0.0000 0.7037 0.7104
vn -0.4976 0.4976 0.7104
vn 0.0000 -1.0000 0.0000
vn 0.7071 -0.7071 0.0000
vn 1.0000 0.0000 0.0000
vn 0.7071 0.7071 0.0000
vn 0.0000 1.0000 0.0000
vn -0.7071 0.7071 0.0000
vn -1.0000 0.0000 0.0000
vn -0.7071 -0.7071 0.0000
vn -0.7024 -0.7024 -0.1147
vn 0.0000 -0.9934 -0.1147
vn -0.6908 0.6908 0.2137
vn 0.0000 0.9769 0.2137
vn 0.7024 -0.7024 -0.1147
vn 0.0000 -0.9519 -0.3062
vn 0.6731 -0.6731 -0.3062
vn 0.9934 0.0000 -0.1147
vn 0.7024 0.7024 -0.1147
vn -0.7024 0.7024 -0.1147
vn -0.9934 0.0000 -0.1147
vn 0.0000 0.9934 -0.1147
vn -0.6731 -0.6731 -0.3062
vn -0.9519 0.0000 -0.3062
vn -0.9197 0.0000 0.3925
vn -0.6503 -0.6503 0.3925
vn -0.6731 0.6731 -0.3062
vn 0.6731 0.6731 -0.3062
vn 0.0000 0.9519 -0.3062
vn 0.9519 0.0000 -0.3062
vn 0.9197 0.0000 0.3925
vn 0.6503 -0.6503 0.3925
vn 0.6277 -0.6277 0.4604
vn 0.8877 0.0000 0.4604
vn 0.0000 0.9197 0.3925
vn -0.6503 0.6503 0.3925
vn 0.6503 0.6503 0.3925
vn 0.0000 -0.9197 0.3925
vn 0.0000 -0.8877 0.4604
vn -0.6277 -0.6277 0.4604
vn -0.8877 0.0000 0.4604
vn 0.0000 0.8877 0.4604
vn -0.6277 0.6277 0.4604
vn 0.6277 0.6277 0.4604
vn -0.9769 0.0000 0.2137
vn -0.6908 -0.6908 0.2137
vn -0.6868 -0.6868 0.2379
vn -0.9713 0.0000 0.2379
vn 0.0000 -0.9769 0.2137
vn 0.6908 -0.6908 0.2137
vn 0.6908 0.6908 0.2137
vn 0.9769 0.0000 0.2137
vn 0.6868 0.6868 0.2379
vn 0.0000 0.9713 0.2379
vn 0.0000 0.7764 0.6302
vn 0.5490 0.5490 0.6302
vn -0.6868 0.6868 0.2379
vn 0.9713 0.0000 0.2379
vn 0.6868 -0.6868 0.2379
vn 0.0000 -0.9713 0.2379
vn -0.7764 0.0000 0.6302
vn -0.5490 -0.5490 0.6302
vn 0.4203 0.4203 0.8042
vn 0.5943 0.0000 0.8042
vn 0.7764 0.0000 0.6302
vn 0.5490 -0.5490 0.6302
vn -0.5490 0.5490 0.6302
vn 0.0000 -0.7764 0.6302
vn 0.4203 -0.4203 0.8042
vn 0.0000 -0.5943 0.8042
vn -0.4203 -0.4203 0.8042
vn -0.5943 0.0000 0.8042
vn -0.4203 0.4203 0.8042
vn 0.0000 0.5943 0.8042
usemtl bulletbase1
s 1
f 1/1/1 8/2/2 7/3/3 6/4/4 5/5/5 4/6/6 3/7/7 2/8/8
f 15/9/9 16/10/10 24/11/11 23/12/12
f 4/6/6 5/5/5 13/13/13 12/14/14
f 2/8/8 3/7/7 11/15/15 10/16/16
f 7/3/3 8/2/2 16/10/10 15/9/9
f 5/5/5 6/4/4 14/17/17 13/13/13
f 3/7/7 4/6/6 12/14/14 11/15/15
f 1/1/1 2/8/8 10/16/16 9/18/18
f 8/2/2 1/1/1 9/18/18 16/10/10
f 6/4/4 7/3/3 15/9/9 14/17/17
f 17/19/19 18/20/20 19/21/21 20/22/22 21/23/23 22/24/24 23/12/12 24/11/11
f 13/13/13 14/17/17 22/24/24 21/23/23
f 11/15/15 12/14/14 20/22/22 19/21/21
f 9/18/18 10/16/16 18/20/20 17/19/19
f 16/10/10 9/18/18 17/19/19 24/11/11
f 14/17/17 15/9/9 23/12/12 22/24/24
f 12/14/14 13/13/13 21/23/23 20/22/22
f 10/16/16 11/15/15 19/21/21 18/20/20
f 25/25/25 26/26/25 28/27/26 27/28/26
f 27/28/26 28/27/26 30/29/27 29/30/27
f 29/30/27 30/29/27 32/31/28 31/32/28
f 31/32/28 32/31/28 34/33/29 33/34/29
f 33/34/29 34/33/29 36/35/30 35/36/30
f 35/36/30 36/35/30 38/37/31 37/38/31
f 26/26/25 40/39/32 48/40/33 41/41/34
f 37/38/31 38/37/31 40/39/32 39/42/32
f 39/42/32 40/39/32 26/26/25 25/25/25
f 33/34/29 35/36/30 86/43/35 85/44/36
f 42/45/37 41/41/34 49/46/38 50/47/39
f 28/27/26 26/26/25 41/41/34 42/45/37
f 32/31/28 30/29/27 43/48/40 44/49/41
f 38/37/31 36/35/30 46/50/42 47/51/43
f 34/33/29 32/31/28 44/49/41 45/52/44
f 40/39/32 38/37/31 47/51/43 48/40/33
f 30/29/27 28/27/26 42/45/37 43/48/40
f 36/35/30 34/33/29 45/52/44 46/50/42
f 56/53/45 55/54/46 63/55/47 64/56/48
f 41/41/34 48/40/33 56/53/45 49/46/38
f 47/51/43 46/50/42 54/57/49 55/54/46
f 45/52/44 44/49/41 52/58/50 53/59/51
f 43/48/40 42/45/37 50/47/39 51/60/52
f 48/40/33 47/51/43 55/54/46 56/53/45
f 46/50/42 45/52/44 53/59/51 54/57/49
f 44/49/41 43/48/40 51/60/52 52/58/50
f 59/61/53 58/62/54 66/63/55 67/64/56
f 54/57/49 53/59/51 61/65/57 62/66/58
f 52/58/50 51/60/52 59/61/53 60/67/59
f 50/47/39 49/46/38 57/68/60 58/62/54
f 49/46/38 56/53/45 64/56/48 57/68/60
f 55/54/46 54/57/49 62/66/58 63/55/47
f 53/59/51 52/58/50 60/67/59 61/65/57
f 51/60/52 50/47/39 58/62/54 59/61/53
f 65/69/61 72/70/62 80/71/2 73/72/1
f 64/56/48 63/55/47 71/73/63 72/70/62
f 62/66/58 61/65/57 69/74/64 70/75/65
f 60/67/59 59/61/53 67/64/56 68/76/66
f 58/62/54 57/68/60 65/69/61 66/63/55
f 57/68/60 64/56/48 72/70/62 65/69/61
f 63/55/47 62/66/58 70/75/65 71/73/63
f 61/65/57 60/67/59 68/76/66 69/74/64
f 74/77/8 73/78/1 80/79/2 79/80/3 78/81/4 77/82/5 76/83/6 75/84/7
f 71/73/63 70/75/65 78/85/4 79/86/3
f 69/74/64 68/76/66 76/87/6 77/88/5
f 67/64/56 66/63/55 74/89/8 75/90/7
f 72/70/62 71/73/63 79/86/3 80/71/2
f 70/75/65 69/74/64 77/88/5 78/85/4
f 68/76/66 67/64/56 75/90/7 76/87/6
f 66/63/55 65/69/61 73/72/1 74/89/8
f 87/91/67 88/92/68 96/93/69 95/94/70
f 39/42/32 25/25/25 81/95/71 88/92/68
f 25/25/25 27/28/26 82/96/72 81/95/71
f 29/30/27 31/32/28 84/97/73 83/98/74
f 35/36/30 37/38/31 87/91/67 86/43/35
f 31/32/28 33/34/29 85/44/36 84/97/73
f 37/38/31 39/42/32 88/92/68 87/91/67
f 27/28/26 29/30/27 83/98/74 82/96/72
f 92/99/75 93/100/76 101/101/77 100/102/78
f 85/44/36 86/43/35 94/103/79 93/100/76
f 83/98/74 84/97/73 92/99/75 91/104/80
f 81/95/71 82/96/72 90/105/81 89/106/82
f 88/92/68 81/95/71 89/106/82 96/93/69
f 86/43/35 87/91/67 95/94/70 94/103/79
f 84/97/73 85/44/36 93/100/76 92/99/75
f 82/96/72 83/98/74 91/104/80 90/105/81
f 103/107/83 104/108/84 112/109/85 111/110/86
f 90/105/81 91/104/80 99/111/87 98/112/88
f 95/94/70 96/93/69 104/108/84 103/107/83
f 93/100/76 94/103/79 102/113/89 101/101/77
f 91/104/80 92/99/75 100/102/78 99/111/87
f 89/106/82 90/105/81 98/112/88 97/114/90
f 96/93/69 89/106/82 97/114/90 104/108/84
f 94/103/79 95/94/70 103/107/83 102/113/89
f 110/115/91 111/110/86 119/116/87 118/117/88
f 101/101/77 102/113/89 110/115/91 109/118/92
f 99/111/87 100/102/78 108/119/93 107/120/94
f 97/114/90 98/112/88 106/121/95 105/122/96
f 104/108/84 97/114/90 105/122/96 112/109/85
f 102/113/89 103/107/83 111/110/86 110/115/91
f 100/102/78 101/101/77 109/118/92 108/119/93
f 98/112/88 99/111/87 107/120/94 106/121/95
f 113/123/77 114/124/89 115/125/83 116/126/84 117/127/90 118/117/88 119/116/87 120/128/78
f 108/119/93 109/118/92 117/127/90 116/126/84
f 106/121/95 107/120/94 115/125/83 114/124/89
f 111/110/86 112/109/85 120/128/78 119/116/87
f 109/118/92 110/115/91 118/117/88 117/127/90
f 107/120/94 108/119/93 116/126/84 115/125/83
f 105/122/96 106/121/95 114/124/89 113/123/77
f 112/109/85 105/122/96 113/123/77 120/128/78
